<mxfile host="app.diagrams.net" modified="2024-06-06T20:48:16.849Z" agent="Mozilla/5.0 (Windows NT 10.0; Win64; x64) AppleWebKit/537.36 (KHTML, like Gecko) Chrome/125.0.0.0 Safari/537.36" version="24.5.1" etag="7cQ9KCNv0jqS7qJIIC1t" type="github">
  <diagram name="PÃ¡gina-1" id="caT47sGxarpD36sitsY5">
    <mxGraphModel>
      <root>
        <mxCell id="0" />
        <mxCell id="1" parent="0" />
      </root>
    </mxGraphModel>
  </diagram>
</mxfile>
